<svg xmlns:xlink="http://www.w3.org/1999/xlink" xmlns="http://www.w3.org/2000/svg" id="screenshot-895e541f-b0db-80bd-8002-405457e48d9d" style="-webkit-print-color-adjust: exact;" fill="none" version="1.1" viewBox="-1.5 -1.5 27.08 23.51"><g id="shape-895e541f-b0db-80bd-8002-405457e48d9d" rx="0" ry="0"><g id="shape-895e541f-b0db-80bd-8002-40513769c657"><g class="fills" id="fills-895e541f-b0db-80bd-8002-40513769c657"><path rx="0" ry="0" d="M3.115,14.000C3.115,14.000,4.773,20.074,13.434,20.511"/></g><g id="strokes-895e541f-b0db-80bd-8002-40513769c657" class="strokes"><g class="stroke-shape"><path rx="0" ry="0" d="M3.115,14.000C3.115,14.000,4.773,20.074,13.434,20.511" style="fill: none; stroke-width: 3; stroke: rgb(87, 83, 78); stroke-opacity: 1;"/></g></g></g><g id="shape-895e541f-b0db-80bd-8002-40513769c65d"><g class="fills" id="fills-895e541f-b0db-80bd-8002-40513769c65d"><ellipse rx="5.000000000000057" ry="5" cx="17.039878841586585" cy="7.051295665744419" transform="matrix(0.643967, 0.765053, -0.764009, 0.645206, 11.454011, -10.534657)" style="fill: rgb(255, 255, 255); fill-opacity: 1;"/></g><g id="strokes-895e541f-b0db-80bd-8002-40513769c65d" class="strokes"><g class="stroke-shape"><ellipse rx="5.000000000000057" ry="5" cx="17.039878841586585" cy="7.051295665744419" transform="matrix(0.643967, 0.765053, -0.764009, 0.645206, 11.454011, -10.534657)" style="fill: none; stroke-width: 3; stroke: rgb(87, 83, 78); stroke-opacity: 1;"/></g></g></g><g id="shape-895e541f-b0db-80bd-8002-40513769c65e"><g class="fills" id="fills-895e541f-b0db-80bd-8002-40513769c65e"><rect rx="0" ry="0" x="20.5" y="7" transform="matrix(1.000000, 0.000000, 0.000000, 1.000000, 0.000000, 0.000000)" width="3" height="6.5" style="fill: rgb(87, 83, 78); fill-opacity: 1;"/></g></g><g id="shape-895e541f-b0db-80bd-8002-40513769c65f"><g class="fills" id="fills-895e541f-b0db-80bd-8002-40513769c65f"><ellipse rx="2" ry="1.9999999999999432" cx="2.735440786209665" cy="7.748772703553243" transform="matrix(-0.510089, 0.860122, 0.857632, 0.514265, -2.514833, 1.411041)" style="fill: rgb(87, 83, 78); fill-opacity: 1;"/></g><g id="strokes-895e541f-b0db-80bd-8002-40513769c65f" class="strokes"><g class="stroke-shape"><ellipse rx="2" ry="1.9999999999999432" cx="2.735440786209665" cy="7.748772703553243" transform="matrix(-0.510089, 0.860122, 0.857632, 0.514265, -2.514833, 1.411041)" style="fill: none; stroke-width: 3; stroke: rgb(87, 83, 78); stroke-opacity: 1;"/></g></g></g></g></svg>