<svg xmlns:xlink="http://www.w3.org/1999/xlink" width="111.5" xmlns="http://www.w3.org/2000/svg" height="24.346" id="screenshot-895e541f-b0db-80bd-8002-4054880f7880" viewBox="-1.5 -1.5 111.5 24.346" style="-webkit-print-color-adjust: exact;" fill="none" version="1.1"><g id="shape-895e541f-b0db-80bd-8002-4054880f7880" rx="0" ry="0"><g id="shape-895e541f-b0db-80bd-8002-40513769c654"><g class="fills" id="fills-895e541f-b0db-80bd-8002-40513769c654"><path rx="0" ry="0" d="M97.000,8.000L98.500,8.000L98.500,14.000L97.000,14.000L97.000,8.000Z" style="fill: rgb(87, 83, 78); fill-opacity: 1;"/></g></g><g id="shape-895e541f-b0db-80bd-8002-40513769c655"><g class="fills" id="fills-895e541f-b0db-80bd-8002-40513769c655"><path rx="0" ry="0" d="M58.500,1.000C62.087,1.000,65.000,3.913,65.000,7.500C65.000,11.087,62.087,14.000,58.500,14.000C54.913,14.000,52.000,11.087,52.000,7.500C52.000,3.913,54.913,1.000,58.500,1.000ZM58.500,2.500C55.740,2.500,53.500,4.740,53.500,7.500C53.500,10.260,55.740,12.500,58.500,12.500C61.260,12.500,63.500,10.260,63.500,7.500C63.500,4.740,61.260,2.500,58.500,2.500Z" style="fill: rgb(87, 83, 78); fill-opacity: 1;"/></g></g><g id="shape-895e541f-b0db-80bd-8002-40513769c656"><g class="fills" id="fills-895e541f-b0db-80bd-8002-40513769c656"><path rx="0" ry="0" d="M33.500,1.000C37.087,1.000,40.000,3.913,40.000,7.500C40.000,11.087,37.087,14.000,33.500,14.000C29.913,14.000,27.000,11.087,27.000,7.500C27.000,3.913,29.913,1.000,33.500,1.000ZM33.500,2.500C30.740,2.500,28.500,4.740,28.500,7.500C28.500,10.260,30.740,12.500,33.500,12.500C36.260,12.500,38.500,10.260,38.500,7.500C38.500,4.740,36.260,2.500,33.500,2.500Z" style="fill: rgb(87, 83, 78); fill-opacity: 1;"/></g></g><g id="shape-895e541f-b0db-80bd-8002-40513769c658"><g class="fills" id="fills-895e541f-b0db-80bd-8002-40513769c658"><path rx="0" ry="0" d="M108.500,8.000L110.000,8.000L110.000,14.000L108.500,14.000L108.500,8.000Z" style="fill: rgb(87, 83, 78); fill-opacity: 1;"/></g></g><g id="shape-895e541f-b0db-80bd-8002-40513769c659"><g class="fills" id="fills-895e541f-b0db-80bd-8002-40513769c659"><path rx="0" ry="0" d="M87.500,1.000C91.087,1.000,94.000,3.913,94.000,7.500C94.000,11.087,91.087,14.000,87.500,14.000C83.913,14.000,81.000,11.087,81.000,7.500C81.000,3.913,83.913,1.000,87.500,1.000ZM87.500,2.500C84.740,2.500,82.500,4.740,82.500,7.500C82.500,10.260,84.740,12.500,87.500,12.500C90.260,12.500,92.500,10.260,92.500,7.500C92.500,4.740,90.260,2.500,87.500,2.500Z" style="fill: rgb(87, 83, 78); fill-opacity: 1;"/></g></g><g id="shape-895e541f-b0db-80bd-8002-40513769c65a"><g class="fills" id="fills-895e541f-b0db-80bd-8002-40513769c65a"><path rx="0" ry="0" d="M92.500,7.000L94.000,7.000L94.000,14.000L92.500,14.000L92.500,7.000Z" style="fill: rgb(87, 83, 78); fill-opacity: 1;"/></g></g><g id="shape-895e541f-b0db-80bd-8002-40513769c65b"><g class="fills" id="fills-895e541f-b0db-80bd-8002-40513769c65b"><path rx="0" ry="0" d="M103.500,2.408C100.740,2.408,98.500,4.512,98.500,7.102L98.500,11.000C97.563,9.943,97.000,8.584,97.000,7.102C97.000,3.734,99.913,1.000,103.500,1.000C107.087,1.000,110.000,3.734,110.000,7.102C110.000,8.584,109.437,9.943,108.500,11.000L108.500,7.102C108.500,4.512,106.260,2.408,103.500,2.408Z" style="fill: rgb(87, 83, 78); fill-opacity: 1;"/></g></g><g id="shape-895e541f-b0db-80bd-8002-40513769c65c"><g class="fills" id="fills-895e541f-b0db-80bd-8002-40513769c65c"><path rx="0" ry="0" d="M27.000,7.000L28.500,7.000L28.500,18.000L27.000,18.000L27.000,7.000Z" style="fill: rgb(87, 83, 78); fill-opacity: 1;"/></g></g><g id="shape-895e541f-b0db-80bd-8002-405457e48d9d" rx="0" ry="0"><g id="shape-895e541f-b0db-80bd-8002-40513769c657"><g class="fills" id="fills-895e541f-b0db-80bd-8002-40513769c657"><path rx="0" ry="0" d="M3.115,14.000C3.115,14.000,4.773,20.074,13.434,20.511"/></g><g id="strokes-895e541f-b0db-80bd-8002-40513769c657" class="strokes"><g class="stroke-shape"><path rx="0" ry="0" d="M3.115,14.000C3.115,14.000,4.773,20.074,13.434,20.511" style="fill: none; stroke-width: 3; stroke: rgb(87, 83, 78); stroke-opacity: 1;"/></g></g></g><g id="shape-895e541f-b0db-80bd-8002-40513769c65d"><g class="fills" id="fills-895e541f-b0db-80bd-8002-40513769c65d"><ellipse rx="5.000000000000057" ry="5" cx="17.039878841586585" cy="7.051295665744419" transform="matrix(0.643967, 0.765053, -0.764009, 0.645206, 11.454011, -10.534657)" style="fill: rgb(255, 255, 255); fill-opacity: 1;"/></g><g id="strokes-895e541f-b0db-80bd-8002-40513769c65d" class="strokes"><g class="stroke-shape"><ellipse rx="5.000000000000057" ry="5" cx="17.039878841586585" cy="7.051295665744419" transform="matrix(0.643967, 0.765053, -0.764009, 0.645206, 11.454011, -10.534657)" style="fill: none; stroke-width: 3; stroke: rgb(87, 83, 78); stroke-opacity: 1;"/></g></g></g><g id="shape-895e541f-b0db-80bd-8002-40513769c65e"><g class="fills" id="fills-895e541f-b0db-80bd-8002-40513769c65e"><rect rx="0" ry="0" x="20.5" y="7" transform="matrix(1.000000, 0.000000, 0.000000, 1.000000, 0.000000, 0.000000)" width="3" height="6.5" style="fill: rgb(87, 83, 78); fill-opacity: 1;"/></g></g><g id="shape-895e541f-b0db-80bd-8002-40513769c65f"><g class="fills" id="fills-895e541f-b0db-80bd-8002-40513769c65f"><ellipse rx="2" ry="1.9999999999999432" cx="2.735440786209665" cy="7.748772703553243" transform="matrix(-0.510089, 0.860122, 0.857632, 0.514265, -2.514833, 1.411041)" style="fill: rgb(87, 83, 78); fill-opacity: 1;"/></g><g id="strokes-895e541f-b0db-80bd-8002-40513769c65f" class="strokes"><g class="stroke-shape"><ellipse rx="2" ry="1.9999999999999432" cx="2.735440786209665" cy="7.748772703553243" transform="matrix(-0.510089, 0.860122, 0.857632, 0.514265, -2.514833, 1.411041)" style="fill: none; stroke-width: 3; stroke: rgb(87, 83, 78); stroke-opacity: 1;"/></g></g></g></g><g id="shape-895e541f-b0db-80bd-8002-40513769c660"><g class="fills" id="fills-895e541f-b0db-80bd-8002-40513769c660"><path rx="0" ry="0" d="M48.000,2.533C45.926,2.999,44.364,5.030,44.364,7.461L44.364,11.638C43.512,10.505,43.000,9.049,43.000,7.461C43.000,4.195,45.170,1.484,48.000,1.000L48.000,2.533ZM43.000,7.461L44.364,7.461L44.364,14.000L43.000,14.000L43.000,7.461Z" style="fill: rgb(87, 83, 78); fill-opacity: 1;"/></g></g><g id="shape-895e541f-b0db-80bd-8002-40513769c661"><g class="fills" id="fills-895e541f-b0db-80bd-8002-40513769c661"><path rx="0" ry="0" d="M67.731,1.000L66.000,1.000L73.500,14.000L81.000,1.000L79.269,1.000L73.500,11.000L67.731,1.000Z" style="fill: rgb(87, 83, 78); fill-opacity: 1;"/></g></g></g></svg>